<?xml version="1.0" encoding="UTF-8"?>
<!DOCTYPE svg PUBLIC "-//W3C//DTD SVG 1.1//EN" "http://www.w3.org/Graphics/SVG/1.1/DTD/svg11.dtd">
<!-- Creator: CorelDRAW 2019 (64 Bit Versão de avaliação) -->
<svg xmlns="http://www.w3.org/2000/svg" xml:space="preserve" width="300px" height="150px" version="1.1" style="shape-rendering:geometricPrecision; text-rendering:geometricPrecision; image-rendering:optimizeQuality; fill-rule:evenodd; clip-rule:evenodd"
viewBox="0 0 300 150"
 xmlns:xlink="http://www.w3.org/1999/xlink">
 <defs>
  <style type="text/css">
   <![CDATA[
    .str0 {stroke:black;stroke-width:0.756;stroke-miterlimit:22.9256}
    .str1 {stroke:#666666;stroke-width:0.756;stroke-miterlimit:22.9256}
    .fil2 {fill:none}
    .fil0 {fill:#C9C95D}
    .fil1 {fill:#CCCCCC}
   ]]>
  </style>
 </defs>
 <g id="Camada_x0020_1">
  <metadata id="CorelCorpID_0Corel-Layer"/>
  <g id="_2026473822080">
   <path class="fil0 str0" d="M217.108 35.5c6.527,0 12.172,9.004 14.871,22.086l1.693 0 0 17.414 0 17.414 -1.694 0c-2.699,13.082 -8.343,22.086 -14.87,22.086 -6.527,0 -12.171,-9.004 -14.87,-22.086l-104.475 0c-2.7,13.082 -8.344,22.086 -14.87,22.086 -6.528,0 -12.171,-9.004 -14.871,-22.086l-1.694 0 0 -17.414 0 -17.414 1.694 0c2.699,-13.082 8.343,-22.086 14.871,-22.086 6.526,0 12.171,9.004 14.87,22.086l104.475 0c2.699,-13.082 8.343,-22.086 14.87,-22.086z"/>
   <path class="fil1 str1" d="M6.016 67.779l60.312 0 0 15.078 -60.312 0c-2.335,0 -4.246,-1.91 -4.246,-4.247l0 -6.584c0,-2.336 1.911,-4.247 4.246,-4.247z"/>
   <path class="fil1 str1" d="M233.672 67.779l60.312 0c2.336,0 4.247,1.911 4.247,4.247l0 6.584c0,2.337 -1.911,4.247 -4.247,4.247l-60.312 0 0 -15.078z"/>
  </g>
  <rect class="fil2 str0" x="111.313" y="57.586" width="8" height="34.828"/>
  <rect class="fil2 str0" x="133.5" y="57.586" width="8" height="34.828"/>
  <rect class="fil2 str0" x="154.5" y="57.586" width="8" height="34.828"/>
  <rect class="fil2 str0" x="188.5" y="57.586" width="8" height="34.828"/>
 </g>
</svg>
